<svg xmlns="http://www.w3.org/2000/svg" width="41" height="41" viewBox="0 0 41 41" fill="none">
  <g clip-path="url(#clip0_4876_8254)">
    <path d="M35.1667 23.4333V5.83333C35.903 5.83333 36.5 5.23638 36.5 4.5V1.83333C36.5 1.09695 35.903 0.5 35.1667 0.5H23.1667C22.4303 0.5 21.8333 1.09695 21.8333 1.83333V4.5C21.8333 5.23638 22.4303 5.83333 23.1667 5.83333V11.1387L13.1727 0.9C12.9211 0.6447 12.5778 0.500666 12.2193 0.5H1.83333C1.09695 0.5 0.5 1.09695 0.5 1.83333V39.1667C0.5 39.903 1.09695 40.5 1.83333 40.5H39.1667C39.903 40.5 40.5 39.903 40.5 39.1667V29.438C40.5013 29.0891 40.365 28.7538 40.1207 28.5047L35.1667 23.4333ZM23.1667 1.83333H35.1667V4.5H23.1667V1.83333ZM24.5 8.5H27.8333C28.2015 8.5 28.5 8.20152 28.5 7.83333C28.5 7.46514 28.2015 7.16667 27.8333 7.16667H24.5V5.83333H33.8333V7.16667H30.5C30.1318 7.16667 29.8333 7.46514 29.8333 7.83333C29.8333 8.20152 30.1318 8.5 30.5 8.5H33.8333V22.066L24.5 12.5047V8.5ZM12.2193 1.83333L39.1667 29.438V31.6273L10.0827 1.83333H12.2193ZM1.83333 5.16667H11.4733L12.7747 6.5H1.83333V5.16667ZM8.21933 1.83333L10.1713 3.83333H1.83333V1.83333H8.21933ZM4.5 35.1667V32.5H21.1667C21.5349 32.5 21.8333 32.7985 21.8333 33.1667V35.1667H4.5ZM4.5 31.1667C4.5 30.4303 5.09695 29.8333 5.83333 29.8333H7.16667C7.90305 29.8333 8.5 30.4303 8.5 31.1667H4.5ZM4.5 36.5H21.1667V39.1667H4.5V36.5ZM25.8333 39.1667V34.5H36.5V39.1667H25.8333ZM37.8333 39.1667V34.5C37.8333 33.7636 37.2364 33.1667 36.5 33.1667H25.8333C25.097 33.1667 24.5 33.7636 24.5 34.5V39.1667H22.5V36.3147C22.9112 36.0784 23.1652 35.6409 23.1667 35.1667V33.1667C23.1667 32.0621 22.2712 31.1667 21.1667 31.1667H9.83333C9.83333 29.6939 8.63943 28.5 7.16667 28.5H5.83333C5.36383 28.5028 4.90356 28.6307 4.5 28.8707V25.1667C4.5 24.7985 4.20152 24.5 3.83333 24.5C3.46514 24.5 3.16667 24.7985 3.16667 25.1667V39.1667H1.83333V7.83333H14.076L39.1667 33.5367V39.1667H37.8333Z" fill="#8B8B8B"/>
    <path d="M17.8327 13.8333H4.49935C3.76297 13.8333 3.16602 14.4303 3.16602 15.1667V21.8333C3.16602 22.5697 3.76297 23.1667 4.49935 23.1667H17.8327C18.5691 23.1667 19.166 22.5697 19.166 21.8333V15.1667C19.166 14.4303 18.5691 13.8333 17.8327 13.8333ZM4.49935 15.1667H10.4993V21.8333H4.49935V15.1667ZM11.8327 21.8333V15.1667H17.8327V21.8333H11.8327Z" fill="#8B8B8B"/>
  </g>
  <defs>
    <clipPath id="clip0_4876_8254">
      <rect width="40" height="40" fill="white" transform="translate(0.5 0.5)"/>
    </clipPath>
  </defs>
</svg>