<svg xmlns="http://www.w3.org/2000/svg" width="40" height="41" viewBox="0 0 40 41" fill="none">
  <g clip-path="url(#clip0_4876_2458)">
    <path d="M11.373 24.3755C11.709 24.9438 12.3284 25.2969 12.9898 25.2969C13.3241 25.2969 13.6542 25.2063 13.9448 25.0346C14.835 24.5074 15.1305 23.3538 14.6036 22.4634C14.1838 21.7538 13.9618 20.9277 13.9618 20.0742C13.9618 19.1412 14.2359 18.236 14.7296 17.4909C14.9826 17.7191 15.3162 17.8594 15.683 17.8594H18.4636V23.0892C18.4636 24.1242 19.3056 24.9662 20.3406 24.9662C21.3756 24.9662 22.2177 24.1242 22.2177 23.0892V17.8594H24.9977C25.3647 17.8594 25.6986 17.719 25.9517 17.4907C26.4455 18.2359 26.7196 19.1411 26.7196 20.0742C26.7196 20.9281 26.4975 21.7541 26.0768 22.4638C25.5506 23.3549 25.8468 24.5083 26.737 25.0349C27.6495 25.5743 28.7926 25.2452 29.3081 24.3758C30.0705 23.0879 30.4734 21.6004 30.4734 20.0742C30.4734 18.5202 30.0544 17.0084 29.2615 15.7024C28.5521 14.5337 27.576 13.5793 26.425 12.9221V12.7203C26.425 11.9338 25.7847 11.2938 24.9977 11.2938H22.3167V1.47657C22.3167 0.938058 21.8787 0.500011 21.3402 0.500011H19.3409C18.8024 0.500011 18.3644 0.938058 18.3644 1.47657V4.07704C18.3644 4.40071 18.6266 4.66298 18.9503 4.66298C19.274 4.66298 19.5363 4.40071 19.5363 4.07704V1.67189H21.1448V11.2938H19.5363V6.81142C19.5363 6.48775 19.274 6.22548 18.9503 6.22548C18.6266 6.22548 18.3644 6.48775 18.3644 6.81142V11.2938H15.6829C14.8963 11.2938 14.2563 11.9337 14.2563 12.7203V12.922C13.1049 13.5792 12.1287 14.5336 11.4191 15.7023C10.6262 17.0083 10.207 18.5201 10.207 20.0742C10.207 21.5995 10.6102 23.0869 11.373 24.3755ZM20.3405 23.7943C19.9516 23.7943 19.6354 23.478 19.6354 23.0892V15.4347C19.6354 15.0458 19.9517 14.7295 20.3405 14.7295C20.7295 14.7295 21.0457 15.0459 21.0457 15.4347V23.0892C21.0457 23.4781 20.7295 23.7943 20.3405 23.7943ZM29.3016 20.0742C29.3016 21.3905 28.9551 22.6715 28.2999 23.7784C28.0967 24.1211 27.6644 24.2216 27.3335 24.0261C26.9991 23.8283 26.888 23.3947 27.0854 23.0605C27.6127 22.1707 27.8914 21.1381 27.8914 20.0742C27.8914 18.6269 27.3595 17.2275 26.425 16.1942V14.3146C28.198 15.5992 29.3016 17.7619 29.3016 20.0742ZM15.4281 12.7203C15.4281 12.5799 15.5424 12.4656 15.6829 12.4656H24.9977C25.1386 12.4656 25.2532 12.5799 25.2532 12.7203V16.432C25.2532 16.573 25.1386 16.6875 24.9977 16.6875H22.2176V15.4347C22.2176 14.3997 21.3755 13.5577 20.3405 13.5577C19.3055 13.5577 18.4635 14.3997 18.4635 15.4347V16.6875H15.6829C15.5424 16.6875 15.4281 16.5729 15.4281 16.432V12.7203ZM14.2563 14.3145V16.1942C13.3219 17.2275 12.7898 18.6269 12.7898 20.0742C12.7898 21.1374 13.0682 22.17 13.5949 23.0601C13.793 23.3947 13.682 23.8282 13.348 24.0259C13.2384 24.0907 13.1146 24.125 12.9898 24.125C12.7409 24.125 12.5078 23.9925 12.3816 23.7788C11.7256 22.6706 11.3789 21.3895 11.3789 20.0742C11.3789 17.7617 12.4828 15.5988 14.2563 14.3145Z" fill="#8B8B8B"/>
    <path d="M36.3659 39.3281H34.8712V36.4976C34.8712 35.5126 34.0698 34.7112 33.0847 34.7112H32.6364C32.3994 34.7112 32.181 34.5725 32.0802 34.3579L31.8046 33.7715C31.6669 33.4786 31.3177 33.3526 31.0251 33.4903C30.7322 33.6279 30.6063 33.9769 30.7439 34.2698L31.0195 34.8563C31.3126 35.4801 31.9473 35.8831 32.6363 35.8831H33.0846C33.4235 35.8831 33.6992 36.1587 33.6992 36.4976V39.3282H6.86477L7.10734 37.9315C7.13359 37.7803 7.25258 37.6613 7.40383 37.6353L8.58602 37.4315C8.98867 37.3626 9.35367 37.1306 9.58813 36.7942L11.1369 34.5612C11.3149 34.3053 11.6068 34.1525 11.9175 34.1525H13.1339L12.848 34.6476C12.6167 35.0483 12.6167 35.5461 12.848 35.9468L13.9391 37.8366C14.1705 38.2372 14.6016 38.4861 15.0642 38.4861H17.2464C17.7091 38.4861 18.1401 38.2372 18.3715 37.8365L19.4627 35.9466C19.6937 35.546 19.6938 35.0483 19.4626 34.6476L18.3715 32.7579C18.2149 32.4866 17.9666 32.2853 17.6791 32.1833L18.0376 30.2996C18.1233 29.85 18.5176 29.5236 18.9753 29.5236H21.7378C21.981 29.5236 22.213 29.6151 22.3906 29.7812L23.2327 30.569L22.3664 31.4353C21.9807 31.8211 21.9807 32.4486 22.3664 32.8346L23.0985 33.5667L21.4612 35.204C21.3079 35.3574 21.2081 35.5603 21.18 35.7751L20.9719 37.3683C20.9317 37.6754 21.0343 37.9772 21.2534 38.1962C21.4411 38.384 21.6898 38.4861 21.9505 38.4861C21.9937 38.4861 22.0374 38.4833 22.0812 38.4776L23.6742 38.2695C23.8891 38.2415 24.0921 38.1416 24.2458 37.988L25.8828 36.3509L26.615 37.0831C26.808 37.276 27.0613 37.3724 27.3146 37.3724C27.568 37.3724 27.8213 37.276 28.0143 37.0831L29.4551 35.6423C29.8409 35.2565 29.8409 34.6288 29.4551 34.243L26.857 31.645L28.7009 31.1286C28.9912 31.0476 29.2949 31.1864 29.4232 31.4597L29.5795 31.7918C29.6793 32.004 29.8901 32.1284 30.11 32.1284C30.1935 32.1284 30.2784 32.1104 30.3591 32.0725C30.6519 31.9347 30.7775 31.5857 30.6398 31.2929L30.4838 30.9615C30.1118 30.1685 29.2291 29.7641 28.3852 30.0001L25.9064 30.6944L25.2066 29.9945C25.0196 29.8076 24.7713 29.7047 24.507 29.7047C24.3688 29.7047 24.2352 29.7335 24.1122 29.7871L23.1909 28.9252C22.7952 28.5554 22.2791 28.3518 21.7377 28.3518H18.9752C17.9555 28.3518 17.077 29.0788 16.8863 30.0805L16.5004 32.1083H15.0642C14.6016 32.1083 14.1705 32.3572 13.9391 32.7579L13.8105 32.9807H12.6676L10.2409 28.7788C9.96203 28.2948 9.34055 28.1276 8.8543 28.4069L7.45406 29.2152C6.97086 29.4954 6.80469 30.1169 7.08359 30.601L9.525 34.8291L8.62594 36.1254C8.57039 36.2051 8.48375 36.2603 8.3875 36.2768L7.20508 36.4806C6.5668 36.5902 6.06352 37.0929 5.95273 37.7312L5.67539 39.3283H4.3125C3.98883 39.3283 3.72656 39.5906 3.72656 39.9143C3.72656 40.2379 3.98883 40.5002 4.3125 40.5002H36.3659C36.6896 40.5002 36.9519 40.2379 36.9519 39.9143C36.9519 39.5904 36.6896 39.3281 36.3659 39.3281ZM23.461 37.1154L22.1646 37.2848L22.334 35.9884L23.9272 34.3952L25.0541 35.5222L23.461 37.1154ZM27.3146 36.1253C26.7573 35.5679 23.3241 32.1347 23.3241 32.1347L24.507 30.952L28.4974 34.9425L27.3146 36.1253ZM15.0642 33.2799H17.2464C17.2917 33.2799 17.334 33.3043 17.3566 33.3436L18.4477 35.2331C18.4703 35.2725 18.4703 35.3214 18.4477 35.3606L17.3566 37.2503C17.334 37.2896 17.2917 37.314 17.2464 37.314H15.0642C15.0189 37.314 14.9766 37.2896 14.954 37.2504L13.8629 35.3606C13.8402 35.3213 13.8402 35.2726 13.8629 35.2333L14.954 33.3436C14.9767 33.3044 15.0189 33.2799 15.0642 33.2799ZM9.30414 29.5L11.3581 33.0566C10.9322 33.1733 10.5491 33.421 10.2668 33.7702L8.1768 30.1508L9.30414 29.5Z" fill="#8B8B8B"/>
    <path d="M31.3319 9.22774C31.3398 9.22774 31.3476 9.22759 31.3555 9.22728C31.6788 9.21454 31.9305 8.94204 31.9178 8.61868L31.8412 6.6779C33.0715 7.98251 34.0617 9.47095 34.7893 11.1158C35.6798 13.129 36.1314 15.2757 36.1314 17.4962C36.1314 20.4466 35.313 23.3228 33.765 25.814C33.5941 26.0889 33.6786 26.4502 33.9533 26.6209C34.2273 26.7911 34.5888 26.7085 34.7603 26.4326C36.4239 23.7556 37.3033 20.6654 37.3033 17.4962C37.3033 15.1114 36.818 12.8052 35.861 10.6417C35.1023 8.92649 34.0784 7.36939 32.8107 5.99806L34.473 6.0636C34.7951 6.07509 35.0688 5.82454 35.0815 5.50126C35.0943 5.17798 34.8425 4.9054 34.5192 4.89267L32.098 4.79712C31.7877 4.78563 31.4849 4.87907 31.2357 5.05642C31.2047 5.07571 31.1758 5.09876 31.1476 5.12368C31.1176 5.15009 31.0867 5.17564 31.0583 5.20407C30.7844 5.47798 30.6362 5.85696 30.6515 6.24392L30.747 8.66493C30.7593 8.9804 31.019 9.22774 31.3319 9.22774Z" fill="#8B8B8B"/>
    <path d="M7.19021 25.4687L7.76568 23.1151C7.84256 22.8008 7.65006 22.4836 7.33568 22.4068C7.02131 22.3298 6.7042 22.5224 6.6274 22.8368L6.19521 24.6042C5.50545 23.2352 5.02053 21.7722 4.75045 20.2413C3.74428 14.5342 5.93904 8.74484 10.4782 5.13227C10.7314 4.93078 10.7733 4.56211 10.5718 4.30899C10.3704 4.0557 10.0017 4.01383 9.7485 4.21539C4.87295 8.09555 2.5156 14.3144 3.59646 20.4448C3.8874 22.0941 4.41068 23.6706 5.15568 25.1457L3.46693 24.5885C3.15967 24.487 2.82834 24.6541 2.72693 24.9613C2.62553 25.2687 2.79248 25.5999 3.09975 25.7013L5.4006 26.4605C6.17139 26.7151 6.9974 26.2571 7.19021 25.4687Z" fill="#8B8B8B"/>
  </g>
  <defs>
    <clipPath id="clip0_4876_2458">
      <rect width="40" height="40" fill="white" transform="translate(0 0.5)"/>
    </clipPath>
  </defs>
</svg>