<svg xmlns="http://www.w3.org/2000/svg" width="40" height="41" viewBox="0 0 40 41" fill="none">
  <g clip-path="url(#clip0_4876_6538)">
    <path d="M14.8711 33.8728C13.7618 33.8728 12.8594 34.7752 12.8594 35.8845C12.8594 36.2113 13.1243 36.4762 13.4511 36.4762C13.7776 36.4762 14.0428 36.2113 14.0428 35.8845C14.0428 35.4276 14.4142 35.0562 14.8711 35.0562C15.3279 35.0562 15.6996 35.4276 15.6996 35.8845C15.6996 36.2113 15.9645 36.4762 16.2914 36.4762C16.6182 36.4762 16.8831 36.2113 16.8831 35.8845C16.8828 34.7755 15.9804 33.8728 14.8711 33.8728Z" fill="#8B8B8B"/>
    <path d="M24.0237 35.3718C22.9144 35.3718 22.0117 36.2742 22.0117 37.3835C22.0117 37.7103 22.2766 37.9752 22.6035 37.9752C22.9303 37.9752 23.1952 37.7103 23.1952 37.3835C23.1952 36.927 23.5669 36.5552 24.0237 36.5552C24.4806 36.5552 24.852 36.927 24.852 37.3835C24.852 37.7103 25.1169 37.9752 25.4437 37.9752C25.7706 37.9752 26.0354 37.7103 26.0354 37.3835C26.0354 36.2742 25.1327 35.3718 24.0237 35.3718Z" fill="#8B8B8B"/>
    <path d="M32.7025 37.8568C32.7025 38.1184 32.4907 38.3305 32.2292 38.3305C31.968 38.3305 31.7559 38.1184 31.7559 37.8568C31.7559 37.5956 31.968 37.3835 32.2292 37.3835C32.4907 37.3835 32.7025 37.5956 32.7025 37.8568Z" fill="#8B8B8B"/>
    <path d="M9.6654 36.5946C9.6654 36.8562 9.45361 37.0679 9.19208 37.0679C8.93054 37.0679 8.71875 36.8562 8.71875 36.5946C8.71875 36.3331 8.93054 36.1213 9.19208 36.1213C9.45361 36.1213 9.6654 36.3331 9.6654 36.5946Z" fill="#8B8B8B"/>
    <path d="M36.0946 36.0029C35.7921 36.0029 35.494 36.0374 35.2031 36.1051C34.5705 35.2412 33.7475 34.5634 32.8109 34.1123L35.7522 32.2755C37.1685 31.3908 38.1472 29.94 38.4371 28.2954L39.6975 21.1479C39.7246 20.9935 39.6895 20.8345 39.5995 20.706C39.5095 20.5772 39.3721 20.4896 39.2174 20.4625L38.1478 20.2739C37.8264 20.2174 37.5191 20.4319 37.4624 20.7539C37.4056 21.0756 37.6204 21.3826 37.9424 21.4393L38.4295 21.5251L37.2716 28.09C37.04 29.4047 36.2575 30.5644 35.1253 31.2718L31.9366 33.263C31.675 33.4266 31.3747 33.5303 31.068 33.5639C30.725 33.5078 30.375 33.4785 30.0197 33.4785C29.8629 33.4785 29.7054 33.4843 29.5479 33.4959C29.0533 31.9022 27.6778 30.742 26.0235 30.5198L25.2505 29.5307C24.7067 28.8349 24.3765 28.0186 24.2797 27.1617C24.8666 27.5019 25.6066 27.7848 26.4455 27.7848H26.4458C26.9775 27.7848 27.5027 27.6701 28.0071 27.4436C30.6927 26.2379 32.1007 22.0457 32.1596 21.8678C32.2585 21.5672 32.1038 21.2419 31.8081 21.1293C31.7193 21.0957 29.6111 20.3029 27.4602 20.3029C26.6091 20.3029 25.8605 20.4304 25.2255 20.6788L25.4791 19.2418L30.1891 20.0724H30.1897L33.7185 20.6947H33.7188L35.2633 20.9669C35.5861 21.024 35.8922 20.8088 35.949 20.4869C36.0058 20.1652 35.7906 19.8582 35.469 19.8014L34.5067 19.6318L35.2569 15.3785L36.8477 6.35483L38.6831 6.67832C38.7181 6.68442 38.7526 6.68747 38.7865 6.68747C39.0685 6.68747 39.3181 6.48545 39.3688 6.19858L39.991 2.66954C40.0478 2.34789 39.8326 2.04088 39.511 1.98412L31.1461 0.50921C30.9911 0.481744 30.8324 0.517144 30.7039 0.607171C30.5752 0.697197 30.4876 0.834526 30.4604 0.98925L29.8385 4.51799C29.7814 4.83995 29.9966 5.14695 30.3182 5.20341L32.1535 5.5272L31.841 7.30088C31.7843 7.62253 31.9991 7.92954 32.3211 7.9863C32.6424 8.04276 32.9497 7.82822 33.0062 7.50626L33.319 5.73258L35.6826 6.14945L34.1942 14.5903L31.8307 14.1737L32.5197 10.2666C32.5765 9.9446 32.3614 9.6376 32.0397 9.58114C31.7177 9.52438 31.411 9.73922 31.3543 10.0612L30.5627 14.5509L29.8125 18.8041L25.1019 17.9734C24.7796 17.917 24.4732 18.1315 24.4164 18.4535L23.8717 21.5428C22.6666 22.7314 22.6153 24.4282 22.6748 25.2534C21.8087 25.6513 21.1111 26.211 20.592 26.7283V19.9916C21.8261 19.5485 23.59 18.3595 23.59 16.1607C23.59 13.2896 20.5636 9.98153 20.4348 9.84207C20.3228 9.72091 20.165 9.65194 20.0002 9.65194C19.8351 9.65194 19.6777 9.72091 19.5657 9.84207C19.4366 9.98153 16.4105 13.2896 16.4105 16.1607C16.4105 18.3595 18.1741 19.5485 19.4085 19.9916V25.5448C18.8891 25.0276 18.1915 24.4679 17.3257 24.0699C17.3983 23.0607 17.3059 20.7475 15.1382 19.655C14.4332 19.2997 13.5589 19.1194 12.5399 19.1194C10.3891 19.1194 8.28092 19.9122 8.19211 19.9458C7.8964 20.0584 7.74168 20.3837 7.84055 20.6843C7.89915 20.8622 9.30753 25.0547 11.9931 26.2602C12.4975 26.4866 13.023 26.6017 13.5546 26.6017C15.0872 26.6017 16.2905 25.6568 16.8304 25.1448C18.2348 25.7911 19.1387 26.9892 19.4085 27.3826V31.3178C18.8357 31.4121 18.2922 31.641 17.825 31.9846C17.015 31.0322 15.8361 30.4804 14.5565 30.4804C12.6495 30.4804 11.0037 31.7191 10.4522 33.4962C10.2948 33.4843 10.1373 33.4785 9.98074 33.4785C7.91379 33.4785 6.00767 34.4526 4.79704 36.1054C4.50621 36.0374 4.20806 36.0032 3.90563 36.0032C1.75201 36.0029 0 37.7549 0 39.9082C0 40.235 0.264892 40.4999 0.591734 40.4999H39.4081C39.735 40.4999 39.9999 40.235 39.9999 39.9082C39.9999 37.7549 38.2479 36.0029 36.0946 36.0029ZM31.523 1.77752L38.7227 3.04674L38.3059 5.41032L36.4705 5.08653L32.9418 4.46428C32.9415 4.46428 32.9412 4.46428 32.9409 4.46428L31.1065 4.14079L31.523 1.77752ZM31.625 15.3392L33.9885 15.7561L33.3413 19.4264L30.9777 19.0098L31.625 15.3392ZM12.4774 25.1805C10.7785 24.4178 9.62216 21.9712 9.17295 20.8656C9.89896 20.6434 11.2277 20.3029 12.5396 20.3029C13.3722 20.3029 14.067 20.4405 14.6054 20.7118C15.8944 21.3615 16.1441 22.6805 16.159 23.5359L13.3123 22.1751C13.0175 22.0344 12.6641 22.1589 12.5232 22.454C12.3822 22.7488 12.507 23.1022 12.8018 23.2429L15.6485 24.6037C15.1644 24.9815 14.418 25.4179 13.5543 25.4179C13.1909 25.4179 12.8286 25.3382 12.4774 25.1805ZM27.4602 21.4863C28.7682 21.4863 30.1 21.8275 30.8272 22.0494C30.3792 23.1553 29.2257 25.5992 27.5225 26.3639C27.1712 26.5214 26.809 26.6014 26.4458 26.6014H26.4455C25.5886 26.6014 24.8406 26.1637 24.3542 25.7856L27.1978 24.4264C27.4926 24.2854 27.6174 23.9323 27.4764 23.6372C27.3354 23.3424 26.9826 23.2176 26.6875 23.3586L23.8448 24.7172C23.8631 23.8609 24.1155 22.5395 25.3945 21.8949C25.9325 21.624 26.6277 21.4863 27.4602 21.4863ZM23.0731 26.3746C23.0114 27.7772 23.4448 29.1422 24.3179 30.2592L24.5617 30.5708C23.6303 30.763 22.7944 31.2559 22.1749 31.9843C21.708 31.641 21.1642 31.4118 20.5917 31.3178V28.5658C20.8547 28.1819 21.7242 27.0304 23.0731 26.3746ZM17.5936 16.1607C17.5936 14.3391 19.2043 12.1333 20.0002 11.1549C20.7964 12.1324 22.4062 14.3352 22.4062 16.1607C22.4062 17.5917 21.3445 18.3494 20.5917 18.7068V16.3975C20.5917 16.0707 20.3268 15.8058 19.9999 15.8058C19.6731 15.8058 19.4082 16.0707 19.4082 16.3975V18.7028C18.6566 18.3421 17.5936 17.5807 17.5936 16.1607ZM1.24817 39.3165C1.51916 38.0994 2.60772 37.1863 3.90532 37.1863C4.22637 37.1863 4.5407 37.2416 4.83946 37.3508C5.1013 37.4464 5.39397 37.3466 5.54259 37.111C6.51152 35.5775 8.17045 34.6616 9.98013 34.6616C10.2554 34.6616 10.5349 34.6839 10.8108 34.7279C11.13 34.7785 11.4315 34.5634 11.4868 34.2445C11.7456 32.7491 13.0365 31.6639 14.5562 31.6639C15.6558 31.6639 16.6531 32.226 17.2238 33.1678C17.3202 33.3274 17.4862 33.4318 17.6718 33.4501C17.857 33.4684 18.0404 33.3982 18.1661 33.2609C18.6364 32.7473 19.3048 32.4528 19.9999 32.4528C20.6951 32.4528 21.3638 32.7473 21.8337 33.2609C21.9595 33.3982 22.1429 33.4684 22.3281 33.4501C22.5137 33.4318 22.6797 33.3274 22.7761 33.1678C23.3468 32.226 24.3441 31.6639 25.4437 31.6639C26.9634 31.6639 28.2543 32.7491 28.5131 34.2445C28.5683 34.5634 28.8692 34.7785 29.1891 34.7279C29.4649 34.6839 29.7445 34.6616 30.0197 34.6616C31.8294 34.6616 33.4881 35.5775 34.4573 37.111C34.6059 37.3466 34.8989 37.4464 35.1604 37.3508C35.4592 37.2416 35.7732 37.1863 36.0946 37.1863C37.3922 37.1863 38.4807 38.0994 38.7517 39.3165H1.24817Z" fill="#8B8B8B"/>
  </g>
  <defs>
    <clipPath id="clip0_4876_6538">
      <rect width="40" height="40" fill="white" transform="translate(0 0.5)"/>
    </clipPath>
  </defs>
</svg>