<svg xmlns="http://www.w3.org/2000/svg" width="41" height="41" viewBox="0 0 41 41" fill="none">
  <g clip-path="url(#clip0_4876_9889)">
    <path d="M25.1432 22.6738V19.7035C25.1432 16.941 22.8959 14.694 20.1338 14.694H12.7958C12.4678 14.694 12.2017 14.9598 12.2017 15.2879C12.2017 15.616 12.4678 15.8821 12.7958 15.8821H20.1338C22.241 15.8821 23.9552 17.5963 23.9552 19.7035V22.7372C22.7382 23.0092 21.8254 24.0974 21.8254 25.3953V29.1084C20.0105 28.1935 16.5117 27.9115 14.1691 27.9115C11.8266 27.9115 8.32776 28.1935 6.51318 29.1084V25.3953C6.51318 24.0971 5.6001 23.0089 4.38306 22.7369V19.7035C4.38306 17.5963 6.09723 15.8821 8.20447 15.8821H10.4194C10.7475 15.8821 11.0136 15.616 11.0136 15.2879C11.0136 14.9598 10.7475 14.694 10.4194 14.694H8.20447C5.44202 14.694 3.1947 16.941 3.1947 19.7035V22.6738C1.74237 22.7305 0.578125 23.9293 0.578125 25.3953V37.8535C0.578125 38.1816 0.844238 38.4474 1.1723 38.4474H3.07904V38.936C3.07904 39.7599 3.74951 40.4304 4.57349 40.4304H8.50903C9.33301 40.4304 10.0032 39.7599 10.0032 38.936V38.4474H18.3348V38.936C18.3348 39.7599 19.0052 40.4304 19.8292 40.4304H23.7648C24.5887 40.4304 25.2592 39.7599 25.2592 38.936V38.4474H27.166C27.4943 38.4474 27.7601 38.1816 27.7601 37.8535V25.3953C27.7601 23.9293 26.5959 22.7305 25.1432 22.6738ZM6.51288 37.2593V31.1369H21.8251V37.2593H6.51288ZM14.1691 29.0995C16.205 29.0995 18.144 29.286 19.6293 29.6241C20.0963 29.7307 20.4707 29.8414 20.7695 29.9489H7.56909C7.86755 29.8414 8.242 29.7307 8.70892 29.6241C10.1942 29.286 12.1333 29.0995 14.1691 29.0995ZM1.76617 25.3953C1.76617 24.5485 2.45557 23.8591 3.30243 23.8591H3.78339C3.78522 23.8591 3.78705 23.8594 3.78888 23.8594H3.79163C4.63727 23.8609 5.32483 24.5491 5.32483 25.3953V37.2593H1.76617V25.3953ZM8.81512 38.936C8.81512 39.1047 8.6778 39.2421 8.50903 39.2421H4.57349C4.40472 39.2421 4.26709 39.1047 4.26709 38.936V38.4474H8.81512V38.936ZM24.0712 38.936C24.0712 39.1047 23.9338 39.2421 23.7648 39.2421H19.8292C19.6605 39.2421 19.5231 39.1047 19.5231 38.936V38.4474H24.0712V38.936ZM26.5721 37.2593H23.0134V25.3953C23.0134 24.5494 23.701 23.8609 24.5466 23.8594H24.5491H24.5546H25.0358C25.883 23.8594 26.5721 24.5485 26.5721 25.3953V37.2593Z" fill="#8B8B8B"/>
    <path d="M40.4755 13.6641L37.5944 0.962639C37.533 0.691948 37.2926 0.499992 37.0152 0.499992H28.6021C28.3247 0.499992 28.0842 0.691948 28.0228 0.962639L25.1417 13.6641C25.1017 13.8401 25.1441 14.0251 25.2567 14.1661C25.3696 14.3074 25.5405 14.3895 25.7209 14.3895H28.9396V19.5759C28.9396 19.904 29.2057 20.1698 29.5338 20.1698C29.8618 20.1698 30.1279 19.904 30.1279 19.5759V14.3895H31.0844V36.9554H30.4813C29.3281 36.9554 28.3897 37.8938 28.3897 39.0471V39.9058C28.3897 40.2339 28.6558 40.5 28.9838 40.5H36.6334C36.9614 40.5 37.2273 40.2339 37.2273 39.9058V39.0471C37.2273 37.8935 36.2891 36.9554 35.1359 36.9554H34.5325V32.7882C34.5325 32.4601 34.2667 32.194 33.9384 32.194C33.6103 32.194 33.3445 32.4601 33.3445 32.7882V36.9554H32.2727V14.3895H33.3445V30.4118C33.3445 30.7399 33.6103 31.0057 33.9384 31.0057C34.2667 31.0057 34.5325 30.7399 34.5325 30.4118V14.3895H39.896C40.0767 14.3895 40.2476 14.3074 40.3602 14.1661C40.4731 14.0251 40.5155 13.8401 40.4755 13.6641ZM35.1359 38.1434C35.6339 38.1434 36.0392 38.5487 36.0392 39.0471V39.3119H29.5777V39.0471C29.5777 38.5487 29.9833 38.1434 30.4813 38.1434H35.1359ZM29.0766 1.68804H30.3175L29.1782 13.2014H26.4649L29.0766 1.68804ZM30.3721 13.2014L31.5116 1.68804H34.1056L35.2448 13.2014H30.3721ZM36.439 13.2014L35.2995 1.68804H36.5406L39.1523 13.2014H36.439Z" fill="#8B8B8B"/>
    <path d="M3.15277 12.1019H16.7545C17.0825 12.1019 17.3483 11.8358 17.3483 11.5077V1.48999C17.3483 1.16193 17.0825 0.896118 16.7545 0.896118H3.15277C2.82471 0.896118 2.55859 1.16193 2.55859 1.48999V11.5077C2.55859 11.8358 2.82471 12.1019 3.15277 12.1019ZM5.77484 9.72546H14.1321L15.3201 10.9138H4.58679L5.77484 9.72546ZM6.12305 8.53741V4.46027H13.7839V8.53741H6.12305ZM14.9722 8.88562V4.11237L16.1603 2.92432V10.0737L14.9722 8.88562ZM14.1321 3.27222H5.77484L4.58679 2.08417H15.3201L14.1321 3.27222ZM4.935 4.11237V8.88562L3.74664 10.0737V2.92432L4.935 4.11237Z" fill="#8B8B8B"/>
  </g>
  <defs>
    <clipPath id="clip0_4876_9889">
      <rect width="40" height="40" fill="white" transform="translate(0.5 0.5)"/>
    </clipPath>
  </defs>
</svg>