<svg xmlns="http://www.w3.org/2000/svg" width="40" height="41" viewBox="0 0 40 41" fill="none">
  <path d="M39.9456 19.7801L35.3683 9.91516C35.2723 9.70829 35.0648 9.57579 34.8367 9.57579H30.5892C30.2655 9.57579 30.0033 9.83805 30.0033 10.1617C30.0033 10.4854 30.2655 10.7477 30.5892 10.7477H34.4626L34.9073 11.7065H30.0227C28.8294 11.7065 27.8584 12.6774 27.8584 13.8708V18.4481C27.8584 19.6415 28.8294 20.6124 30.0227 20.6124H38.8281V22.1238H37.0465C36.7228 22.1238 36.4605 22.386 36.4605 22.7097V25.0773C36.4605 25.401 36.7228 25.6633 37.0465 25.6633H38.8281V28.9109H37.5206C37.228 26.2516 34.9685 24.1757 32.2324 24.1757C29.4964 24.1757 27.237 26.2516 26.9443 28.9109H25.8734V10.7477H27.8491C28.1728 10.7477 28.4351 10.4854 28.4351 10.1617C28.4351 9.83805 28.1728 9.57579 27.8491 9.57579H25.8734V6.76805C25.8734 6.44438 25.6112 6.18211 25.2875 6.18211H21.9922C21.6685 6.18211 21.4062 6.44438 21.4062 6.76805C21.4062 7.09172 21.6685 7.35399 21.9922 7.35399H24.7016V28.911H20.0795C19.7869 26.2517 17.5274 24.1758 14.7913 24.1758C12.7296 24.1758 10.9393 25.3552 10.0562 27.0741C9.1732 25.3552 7.38289 24.1758 5.32109 24.1758C3.64477 24.1758 2.14797 24.9558 1.17195 26.1709V15.957L11.2973 7.35399H19.2578C19.5815 7.35399 19.8438 7.09172 19.8438 6.76805C19.8438 6.44438 19.5815 6.18211 19.2578 6.18211H11.082C10.943 6.18211 10.8086 6.23157 10.7027 6.32149L0.206563 15.2395C0.0755469 15.3507 0 15.514 0 15.6859V29.4969V29.497C0.00015625 32.431 2.38711 34.8178 5.32102 34.8178C7.38281 34.8178 9.17312 33.6384 10.0562 31.9194C10.9392 33.6383 12.7295 34.8178 14.7913 34.8178C17.5273 34.8178 19.7866 32.742 20.0794 30.0828H26.9443C27.2371 32.742 29.4965 34.8178 32.2323 34.8178C34.9684 34.8178 37.2277 32.742 37.5205 30.0828H39.4141C39.7377 30.0828 40 29.8206 40 29.4969V20.0266C40 19.9415 39.9815 19.8573 39.9456 19.7801ZM5.32102 33.646C3.0332 33.646 1.17188 31.7847 1.17188 29.4968C1.17188 27.209 3.0332 25.3477 5.32102 25.3477C7.60891 25.3477 9.47023 27.209 9.47023 29.4968C9.47031 31.7847 7.60898 33.646 5.32102 33.646ZM14.7913 33.646C12.5035 33.646 10.6422 31.7847 10.6422 29.4968C10.6422 27.209 12.5035 25.3477 14.7913 25.3477C17.0792 25.3477 18.9405 27.209 18.9405 29.4968C18.9405 31.7847 17.0792 33.646 14.7913 33.646ZM32.2324 33.646C29.9446 33.646 28.0833 31.7847 28.0833 29.4968C28.0833 27.209 29.9446 25.3477 32.2324 25.3477C34.5203 25.3477 36.3816 27.209 36.3816 29.4968C36.3817 31.7847 34.5203 33.646 32.2324 33.646ZM29.0303 18.4481V13.8709C29.0303 13.3236 29.4755 12.8784 30.0227 12.8784H35.4518L38.4963 19.4406H30.0227C29.4755 19.4406 29.0303 18.9954 29.0303 18.4481ZM37.6324 24.4914V23.2956H38.8281V24.4914H37.6324Z" fill="#8B8B8B"/>
  <path d="M32.232 27.0169C30.8645 27.0169 29.752 28.1294 29.752 29.4968C29.752 30.8643 30.8645 31.9768 32.232 31.9768C33.5995 31.9768 34.712 30.8643 34.712 29.4968C34.712 28.1294 33.5995 27.0169 32.232 27.0169ZM32.232 30.8049C31.5107 30.8049 30.9238 30.218 30.9238 29.4968C30.9238 28.7755 31.5107 28.1888 32.232 28.1888C32.9532 28.1888 33.5401 28.7755 33.5401 29.4968C33.5401 30.218 32.9533 30.8049 32.232 30.8049Z" fill="#8B8B8B"/>
  <path d="M14.7905 27.0169C13.423 27.0169 12.3105 28.1294 12.3105 29.4968C12.3105 30.8643 13.423 31.9768 14.7905 31.9768C16.158 31.9768 17.2705 30.8643 17.2705 29.4968C17.2705 28.1294 16.158 27.0169 14.7905 27.0169ZM14.7905 30.8049C14.0693 30.8049 13.4824 30.218 13.4824 29.4968C13.4824 28.7755 14.0693 28.1888 14.7905 28.1888C15.5118 28.1888 16.0987 28.7755 16.0987 29.4968C16.0987 30.218 15.5119 30.8049 14.7905 30.8049Z" fill="#8B8B8B"/>
  <path d="M5.3218 27.0169C3.9543 27.0169 2.8418 28.1294 2.8418 29.4968C2.8418 30.8643 3.9543 31.9768 5.3218 31.9768C6.6893 31.9768 7.8018 30.8643 7.8018 29.4968C7.80187 28.1294 6.6893 27.0169 5.3218 27.0169ZM5.3218 30.8049C4.60055 30.8049 4.01367 30.218 4.01367 29.4968C4.01367 28.7755 4.60055 28.1888 5.3218 28.1888C6.04305 28.1888 6.62992 28.7755 6.62992 29.4968C6.62992 30.218 6.04312 30.8049 5.3218 30.8049Z" fill="#8B8B8B"/>
  <path d="M14.2809 14.4726L14.9157 13.3566C15.0617 13.0998 15.3063 13.072 15.4048 13.072C15.5032 13.072 15.7478 13.0998 15.8938 13.3566L16.7663 14.8906L16.2598 15.1787L18.2762 16.3602L18.2915 14.0231L17.7849 14.3112L16.9125 12.7772C16.6002 12.228 16.0366 11.9002 15.4048 11.9002C14.773 11.9002 14.2094 12.228 13.897 12.7772L13.2623 13.8932C13.1023 14.1745 13.2006 14.5323 13.482 14.6923C13.7631 14.8522 14.1209 14.7538 14.2809 14.4726Z" fill="#8B8B8B"/>
  <path d="M18.7075 17.1192C18.4262 17.2792 18.3279 17.6369 18.4878 17.9183L19.1448 19.0734C19.2892 19.3272 19.191 19.5502 19.142 19.6344C19.0931 19.7185 18.9478 19.9141 18.6557 19.9141H16.8539V19.3314L14.8301 20.5L16.854 21.6687V21.0859H18.6558C19.2805 21.0859 19.841 20.7635 20.1551 20.2235C20.4691 19.6835 20.4723 19.0369 20.1634 18.4939L19.5065 17.3388C19.3465 17.0576 18.9888 16.9593 18.7075 17.1192Z" fill="#8B8B8B"/>
  <path d="M10.6538 20.2236C10.9679 20.7635 11.5284 21.0859 12.1531 21.0859H13.2222C13.5459 21.0859 13.8082 20.8237 13.8082 20.5C13.8082 20.1763 13.5459 19.9141 13.2222 19.9141H12.1531C11.861 19.9141 11.7157 19.7184 11.6667 19.6344C11.6178 19.5502 11.5196 19.3272 11.664 19.0733L12.5013 17.6013L13.0079 17.8894L12.9925 15.5523L10.9761 16.7338L11.4827 17.022L10.6454 18.494C10.3366 19.037 10.3397 19.6836 10.6538 20.2236Z" fill="#8B8B8B"/>
  <path d="M30.4182 22.6644C30.7419 22.6644 31.0041 22.4021 31.0041 22.0784C31.0041 21.7548 30.7419 21.4925 30.4182 21.4925H28.8398C28.5162 21.4925 28.2539 21.7548 28.2539 22.0784C28.2539 22.4021 28.5162 22.6644 28.8398 22.6644H30.4182Z" fill="#8B8B8B"/>
</svg>