<svg xmlns="http://www.w3.org/2000/svg" width="40" height="41" viewBox="0 0 40 41" fill="none">
  <g clip-path="url(#clip0_4876_4502)">
    <path d="M7.23242 36.1723C6.90875 36.1723 6.64648 35.91 6.64648 35.5864V29.0597C6.64648 28.7361 6.90875 28.4737 7.23242 28.4737C7.55609 28.4737 7.81836 28.7361 7.81836 29.0597V35.5864C7.81836 35.91 7.55602 36.1723 7.23242 36.1723Z" fill="#8B8B8B"/>
    <path d="M9.95508 36.1723C9.63141 36.1723 9.36914 35.91 9.36914 35.5864V29.0597C9.36914 28.7361 9.63141 28.4737 9.95508 28.4737C10.2788 28.4737 10.541 28.7361 10.541 29.0597V35.5864C10.541 35.91 10.2788 36.1723 9.95508 36.1723Z" fill="#8B8B8B"/>
    <path d="M38.8571 1.70468H16.1884C15.8647 1.70468 15.6024 1.96703 15.6024 2.29062C15.6024 2.61421 15.8647 2.87656 16.1884 2.87656H38.8281V5.90882H35.031C34.9142 4.73031 33.9173 3.80671 32.7086 3.80671H32.6104C31.4016 3.80671 30.4047 4.73031 30.2879 5.90882H24.2158C24.099 4.73031 23.102 3.80671 21.8934 3.80671H21.7952C20.5864 3.80671 19.5895 4.73031 19.4727 5.90882H10.991C10.8742 4.73031 9.87734 3.80671 8.66859 3.80671H8.57039C7.36172 3.80671 6.36477 4.73031 6.24797 5.90882H1.17188V2.87656H13.8446C14.1683 2.87656 14.4305 2.61421 14.4305 2.29062C14.4305 1.96703 14.1683 1.70468 13.8446 1.70468H1.14289C0.512656 1.70468 0 2.21734 0 2.84757V5.93781C0 6.56796 0.512656 7.0807 1.14289 7.0807H6.23648V14.3061C6.23648 14.9806 6.52445 15.5889 6.98352 16.0154C6.98266 16.0283 6.98156 16.041 6.98156 16.0541V23.0334C6.98156 24.3526 6.32648 25.5776 5.22953 26.3099L5.21438 26.32C4.74234 26.6351 4.41391 27.1135 4.28945 27.6673L2.90445 33.8291C2.60422 35.1648 2.92258 36.5441 3.77805 37.6131C4.63344 38.6822 5.9093 39.2952 7.27836 39.2952H9.94602C11.3152 39.2952 12.591 38.6821 13.4465 37.613C14.3019 36.5441 14.6202 35.1648 14.32 33.829L12.9349 27.6673C12.8105 27.1137 12.482 26.6351 12.01 26.32C10.9127 25.5875 10.2576 24.3625 10.2576 23.0432V16.0541C10.2576 16.041 10.2565 16.0282 10.2556 16.0154C10.7147 15.5889 11.0027 14.9805 11.0027 14.306V7.0807H19.4613V14.3061C19.4613 14.9797 19.7484 15.5872 20.2063 16.0136V22.09C20.2063 22.4136 20.4686 22.6759 20.7923 22.6759C21.1159 22.6759 21.3782 22.4136 21.3782 22.09V16.6019C21.5136 16.6265 21.6528 16.64 21.7952 16.64H21.8934C22.0359 16.64 22.1751 16.6265 22.3105 16.6019V24.5101C22.3105 25.84 22.8185 27.0999 23.7409 28.0579C24.0966 28.4273 24.4079 28.8903 24.6663 29.4344C25.5803 31.3587 25.563 34.025 24.624 35.9184C23.9292 37.3191 22.9147 38.1227 21.8405 38.1233C21.84 38.1233 21.8398 38.1233 21.8394 38.1233C20.7665 38.1232 19.7525 37.3216 19.0576 35.9237C18.1147 34.0271 18.0963 31.3548 19.0127 29.4251C19.2682 28.8873 19.576 28.4295 19.9274 28.0645L19.9479 28.0433C20.8703 27.0853 21.3783 25.8254 21.3783 24.4955V24.4337C21.3783 24.1101 21.116 23.8477 20.7923 23.8477C20.4687 23.8477 20.2064 24.1101 20.2064 24.4337V24.4955C20.2064 25.5206 19.8148 26.4919 19.104 27.2302L19.0835 27.2515C18.644 27.708 18.2641 28.2701 17.9543 28.9223C16.8771 31.1903 16.8988 34.2137 18.0083 36.4454C18.9086 38.2566 20.3048 39.2952 21.8393 39.2952H21.8409C23.377 39.2944 24.7739 38.2534 25.6737 36.4389C26.7788 34.2107 26.7993 31.1937 25.7248 28.9316C25.412 28.2731 25.0286 27.7057 24.585 27.2451C23.874 26.5066 23.4824 25.5353 23.4824 24.5101V16.0542C23.4824 16.0412 23.4813 16.0283 23.4805 16.0154C23.9395 15.5889 24.2274 14.9806 24.2274 14.3062V7.0807H30.2764V14.3061C30.2764 14.9797 30.5636 15.5871 31.0215 16.0135V36.0282C31.0215 37.4262 32.1589 38.5635 33.5609 38.5635H34.6222C35.9912 38.5635 37.2671 37.9504 38.1226 36.8814C38.978 35.8123 39.2963 34.4331 38.9961 33.0973L37.9834 28.5919C37.7172 27.4072 36.6831 26.5798 35.4689 26.5798H34.2976V16.0134C34.7555 15.587 35.0427 14.9795 35.0427 14.306V7.0807H38.8572C39.4873 7.0807 40.0001 6.56804 40.0001 5.93781V2.84757C40 2.21734 39.4873 1.70468 38.8571 1.70468ZM31.4482 6.14078C31.4482 5.49999 31.9695 4.97867 32.6104 4.97867H32.7086C33.3494 4.97867 33.8707 5.49999 33.8707 6.14078V14.3062C33.8707 14.9469 33.3494 15.4683 32.7086 15.4683H32.6104C31.9695 15.4683 31.4482 14.9469 31.4482 14.3062V6.14078ZM7.40836 6.14078C7.40836 5.49999 7.92969 4.97867 8.57047 4.97867H8.66867C9.30945 4.97867 9.83078 5.49999 9.83078 6.14078V14.3062C9.83078 14.9469 9.30945 15.4683 8.66867 15.4683H8.57047C7.92969 15.4683 7.40836 14.9469 7.40836 14.3062V6.14078ZM11.3592 27.2948C11.5798 27.442 11.7334 27.6656 11.7915 27.9244L13.1766 34.0862C13.3984 35.0727 13.1632 36.0915 12.5314 36.881C11.8996 37.6706 10.9572 38.1234 9.94594 38.1234H7.27828C6.26703 38.1234 5.32477 37.6706 4.69297 36.881C4.06117 36.0914 3.82602 35.0727 4.04773 34.0861L5.43273 27.9244C5.49094 27.6656 5.64437 27.442 5.86469 27.2949L5.87984 27.2848C7.30352 26.3344 8.15344 24.7451 8.15344 23.0334V16.6021C8.28883 16.6266 8.42805 16.6402 8.57047 16.6402H8.66867C8.81102 16.6402 8.95023 16.6266 9.0857 16.6021V23.0434C9.08562 24.755 9.93563 26.3444 11.3592 27.2948ZM21.7952 15.4683C21.1544 15.4683 20.633 14.9469 20.633 14.3062V6.14078C20.633 5.49999 21.1544 4.97867 21.7952 4.97867H21.8934C22.5341 4.97867 23.0555 5.49999 23.0555 6.14078V14.3062C23.0555 14.9469 22.5341 15.4683 21.8934 15.4683H21.7952ZM33.7115 27.7519H35.4688C36.1309 27.7519 36.6946 28.203 36.8398 28.849L37.8526 33.3545C38.0744 34.3411 37.8392 35.3598 37.2074 36.1494C36.5756 36.939 35.6333 37.3918 34.622 37.3918H33.5567C32.8048 37.3918 32.1932 36.7801 32.1932 36.0284V16.602C32.3287 16.6266 32.4679 16.6401 32.6103 16.6401H32.7085C32.8509 16.6401 32.9901 16.6266 33.1255 16.602V27.1659C33.1255 27.4895 33.3879 27.7519 33.7115 27.7519Z" fill="#8B8B8B"/>
  </g>
  <defs>
    <clipPath id="clip0_4876_4502">
      <rect width="40" height="40" fill="white" transform="translate(0 0.5)"/>
    </clipPath>
  </defs>
</svg>