<svg xmlns="http://www.w3.org/2000/svg" width="41" height="41" viewBox="0 0 41 41" fill="none">
  <g clip-path="url(#clip0_4851_14430)">
    <path d="M40.2767 25.2179C42.7473 14.4433 36.0157 3.706 25.2411 1.23538C14.4666 -1.23524 3.72923 5.49643 1.25861 16.271C-1.21201 27.0455 5.51966 37.7829 16.2942 40.2535C27.0688 42.7241 37.8061 35.9924 40.2767 25.2179Z" fill="#ADD3D6"/>
    <path d="M20.7662 28.9816C25.0651 28.9816 28.55 24.1552 28.55 18.2016C28.55 12.2481 25.0651 7.42172 20.7662 7.42172C16.4673 7.42172 12.9824 12.2481 12.9824 18.2016C12.9824 24.1552 16.4673 28.9816 20.7662 28.9816Z" fill="white"/>
    <path d="M20.642 28.2711C14.1246 28.2711 8.31767 29.8464 4.42578 32.2866C8.03968 37.414 14.0011 40.7499 20.7655 40.7499C27.4683 40.7499 33.3988 37.4449 37.0127 32.4101C33.1516 29.8773 27.252 28.2711 20.642 28.2711Z" fill="white"/>
    <path d="M21.9393 33.4602H19.561C17.9239 33.4602 16.5957 32.1321 16.5957 30.495V23.7305C16.5957 22.0934 17.9239 20.7653 19.561 20.7653H21.9393C23.5764 20.7653 24.9046 22.0934 24.9046 23.7305V30.495C24.9046 32.1321 23.5764 33.4602 21.9393 33.4602Z" fill="white"/>
    <path d="M14.1869 18.8193C14.434 20.5491 14.0324 22.0317 13.322 22.1553C12.6116 22.2788 11.8394 20.9815 11.6232 19.2518C11.407 17.522 11.8085 16.0085 12.488 15.885C13.1985 15.7614 13.9707 17.0896 14.1869 18.8193Z" fill="white"/>
    <path d="M27.3153 18.8194C27.0682 20.5491 27.4698 22.0318 28.1802 22.1553C28.8906 22.2789 29.6628 20.9816 29.879 19.2518C30.1261 17.5221 29.7246 16.0395 29.0142 15.9159C28.3037 15.7924 27.5315 17.0897 27.3153 18.8194Z" fill="white"/>
    <path d="M13.2604 17.7692C13.0133 16.0395 12.7353 14.3097 12.4882 12.58C12.3956 11.9622 12.3029 11.2827 12.5191 10.6958C12.7353 10.109 13.4149 9.64563 14.0017 9.86185C13.7546 8.65722 15.0828 7.76146 16.2566 7.39081C18.2025 6.71127 20.272 6.3715 22.3106 6.6495C24.3492 6.92749 26.3261 7.82324 27.716 9.33675C28.1485 9.83096 28.5191 10.3561 28.7353 10.9738C29.1369 12.1476 28.8898 13.4449 28.6118 14.6804C28.3956 15.6379 28.2102 16.6263 27.994 17.5839C27.9322 17.8001 27.9014 18.0472 27.7469 18.2016C27.4998 18.4796 27.0983 18.4796 26.7276 18.4796C22.8666 18.4796 19.0056 18.5105 15.1446 18.5105C14.4342 18.5105 13.4766 18.3252 13.384 17.6147" fill="white"/>
  </g>
  <defs>
    <clipPath id="clip0_4851_14430">
      <rect width="40" height="40" fill="white" transform="translate(0.75 0.75)"/>
    </clipPath>
  </defs>
</svg>