<svg xmlns="http://www.w3.org/2000/svg" width="40" height="41" viewBox="0 0 40 41" fill="none">
  <g clip-path="url(#clip0_4876_2527)">
    <path d="M3.66418 15.4173L2.3428 13.4818L10.8977 7.64173C11.165 7.45924 11.2337 7.09474 11.0513 6.82749C10.8689 6.56025 10.5044 6.4915 10.2371 6.67391L1.52075 12.6242C1.07625 12.9278 0.961413 13.5365 1.26491 13.9813L2.80635 16.2393C2.95337 16.4547 3.17555 16.6 3.43193 16.6484C3.49294 16.66 3.55419 16.6657 3.61497 16.6657C3.80948 16.6656 3.99939 16.6074 4.16352 16.4953L5.97206 15.2607V28.1876C5.97206 28.5113 6.23438 28.7735 6.55795 28.7735C6.88152 28.7735 7.14385 28.5113 7.14385 28.1876V24.7488H11.7126V34.1799H7.14385V30.741C7.14385 30.4174 6.88152 30.1551 6.55795 30.1551C6.23438 30.1551 5.97206 30.4174 5.97206 30.741V34.1799H2.54083C1.14093 34.1799 0.00195312 35.3188 0.00195312 36.7188V39.5234C0.00195312 40.0619 0.439967 40.4999 0.978443 40.4999H39.0225C39.561 40.4999 39.999 40.0619 39.999 39.5234V36.7188C39.999 35.3188 38.86 34.1799 37.4601 34.1799H34.0289V15.2607L35.8373 16.4952C36.0528 16.6424 36.3127 16.6968 36.569 16.6484C36.8254 16.6 37.0475 16.4547 37.1945 16.2394L38.7361 13.9812C39.0395 13.5365 38.9247 12.9278 38.4801 12.6242L21.3218 0.9109C20.5191 0.362972 19.4818 0.362972 18.6792 0.9109L12.3464 5.23402C12.0792 5.41643 12.0104 5.78101 12.1928 6.04825C12.3753 6.31558 12.7398 6.38424 13.0071 6.20184L19.3398 1.87872C19.7411 1.60468 20.2598 1.60483 20.6611 1.87872L37.6581 13.4818L36.3367 15.4174L20.3308 4.49079C20.1316 4.35486 19.8693 4.35486 19.6701 4.49079L3.66418 15.4173ZM28.2882 34.1799V24.7489H32.857V34.18L28.2882 34.1799ZM20.0005 5.68414L30.6794 12.9741H9.3215L20.0005 5.68414ZM12.8844 17.7088C12.8844 17.6011 12.9721 17.5135 13.0797 17.5135H22.8342C23.1577 17.5135 23.4201 17.2513 23.4201 16.9276C23.4201 16.604 23.1577 16.3417 22.8342 16.3417H13.0797C12.326 16.3417 11.7126 16.955 11.7126 17.7088V23.5771H7.14385V14.4608L7.60498 14.1459H32.3959L32.857 14.4608V23.5771H28.2882V17.7088C28.2882 16.955 27.6749 16.3417 26.9211 16.3417H25.3876C25.0641 16.3417 24.8018 16.604 24.8018 16.9276C24.8018 17.2513 25.0641 17.5135 25.3876 17.5135H26.9211C27.0288 17.5135 27.1164 17.6011 27.1164 17.7088V34.18H25.8721C25.8814 34.116 25.8878 34.0512 25.8878 33.9847V24.9442C25.8878 24.1904 25.2745 23.5771 24.5207 23.5771H15.4802C14.7264 23.5771 14.1131 24.1904 14.1131 24.9442V33.9847C14.1131 34.0512 14.1195 34.116 14.1287 34.18H12.8844V17.7088ZM24.716 25.5775V33.3514L20.8291 29.4645L24.716 25.5775ZM20.0005 28.6358L16.1136 24.7489H23.8874L20.0005 28.6358ZM15.2849 33.3513V25.5774L19.1718 29.4643L15.2849 33.3513ZM20.0005 30.293L23.8874 34.1799H16.1135L20.0005 30.293ZM38.8272 39.3282H1.17374V36.7189C1.17374 35.965 1.78706 35.3518 2.54083 35.3518H37.4601C38.2139 35.3518 38.8272 35.965 38.8272 36.7189V39.3282Z" fill="#8B8B8B"/>
  </g>
  <defs>
    <clipPath id="clip0_4876_2527">
      <rect width="40" height="40" fill="white" transform="translate(0 0.5)"/>
    </clipPath>
  </defs>
</svg>