<svg xmlns="http://www.w3.org/2000/svg" width="40" height="41" viewBox="0 0 40 41" fill="none">
  <path d="M37.8884 30.863V24.9C37.8884 24.1461 37.275 23.5328 36.5212 23.5328H30.5949V19.4548L32.6793 21.2249C32.8627 21.3805 33.0872 21.4566 33.3106 21.4566C33.5876 21.4566 33.8629 21.3397 34.0558 21.1126L36.0788 18.7307C36.4273 18.3202 36.3769 17.7027 35.9665 17.3542L25.6994 8.63477C25.4527 8.42523 25.083 8.45547 24.8734 8.70211C24.664 8.94875 24.6941 9.31852 24.9408 9.52797L35.059 18.1209L33.2889 20.2052L19.5905 8.57172C19.3718 8.38602 19.0507 8.38602 18.832 8.57172L5.13359 20.2052L3.36352 18.121L18.3263 5.41383C18.8391 4.97844 19.5834 4.97836 20.0962 5.41383L22.9941 7.87492C23.2408 8.0843 23.6106 8.0543 23.8201 7.80758C24.0295 7.56102 23.9994 7.19117 23.7527 6.98172L20.8548 4.52063C19.9025 3.71187 18.5201 3.71187 17.5677 4.52063L2.45617 17.3541C2.25734 17.523 2.13609 17.7592 2.11492 18.0192C2.09375 18.2791 2.175 18.5319 2.34391 18.7307L4.3668 21.1126C4.71531 21.523 5.33281 21.5734 5.74336 21.2249L7.82766 19.4548V22.323C7.82766 22.6466 8.09 22.9089 8.41359 22.9089C8.73719 22.9089 8.99953 22.6466 8.99953 22.323V21.1718H12.9028V25.9149H8.99953V24.8766C8.99953 24.553 8.73719 24.2907 8.41359 24.2907C8.09 24.2907 7.82766 24.553 7.82766 24.8766V30.8263H2.53906C1.13906 30.8263 0 31.9652 0 33.3653V35.7188C0 36.4726 0.613359 37.0859 1.36719 37.0859H38.6328C39.3866 37.0859 40 36.4726 40 35.7188V33.3653C40 32.1109 39.0855 31.0669 37.8884 30.863ZM25.5198 30.8263V27.0868H29.423V30.8263H25.5198ZM29.423 25.9149H25.5198V21.1718H29.423V25.9149ZM24.3479 25.9645C23.8582 25.5332 23.2459 25.2383 22.5704 25.1402C22.6279 24.8884 22.6585 24.6302 22.6585 24.371C22.6585 22.4702 21.1121 20.9238 19.2113 20.9238C17.3105 20.9238 15.7641 22.4702 15.7641 24.371C15.7641 24.6334 15.7934 24.8904 15.8504 25.1404C15.1755 25.2388 14.5639 25.5336 14.0746 25.9645V17.7242C14.0746 17.6165 14.1623 17.5289 14.2699 17.5289H24.1526C24.2602 17.5289 24.3479 17.6165 24.3479 17.7242V25.9645ZM19.2113 26.6305C18.7231 25.9055 17.9668 25.3759 17.0859 25.1836C16.9868 24.9255 16.9359 24.6532 16.9359 24.371C16.9359 23.1163 17.9566 22.0956 19.2113 22.0956C20.4659 22.0956 21.4866 23.1163 21.4866 24.371C21.4866 24.6534 21.4363 24.9257 21.3373 25.1835C20.456 25.3757 19.6995 25.9053 19.2113 26.6305ZM14.0746 28.5509C14.0746 27.2963 15.0953 26.2755 16.3499 26.2755C17.6045 26.2755 18.6253 27.2963 18.6253 28.5509C18.6253 29.8055 17.6046 30.8263 16.3499 30.8263C15.0952 30.8263 14.0746 29.8055 14.0746 28.5509ZM19.2113 30.4714C19.2951 30.5959 19.3873 30.7141 19.4861 30.8263H18.9363C19.0352 30.7141 19.1275 30.5958 19.2113 30.4714ZM19.7972 28.5509C19.7972 27.2963 20.8179 26.2755 22.0725 26.2755C23.3271 26.2755 24.3479 27.2963 24.3479 28.5509C24.3479 29.8055 23.3272 30.8263 22.0725 30.8263C20.8178 30.8263 19.7972 29.8055 19.7972 28.5509ZM8.99945 19.9999V18.4595L19.2113 9.78703L29.423 18.4595V19.9999H25.5197V17.7242C25.5197 16.9704 24.9063 16.357 24.1525 16.357H14.2699C13.5161 16.357 12.9027 16.9704 12.9027 17.7242V19.9999H8.99945ZM8.99945 27.0868H12.9027V30.8263H8.99945V27.0868ZM32.3614 31.9981C32.685 31.9981 32.9473 31.7359 32.9473 31.4122C32.9473 31.0885 32.685 30.8263 32.3614 30.8263H30.5949V24.7047H36.5212C36.6288 24.7047 36.7165 24.7923 36.7165 24.9V30.8263H34.9323C34.6087 30.8263 34.3463 31.0885 34.3463 31.4122C34.3463 31.7359 34.6087 31.9981 34.9323 31.9981H37.4609C38.2148 31.9981 38.8281 32.6115 38.8281 33.3653V35.7188C38.8281 35.8265 38.7405 35.9141 38.6328 35.9141H1.36719C1.25953 35.9141 1.17188 35.8265 1.17188 35.7188V33.3653C1.17188 32.6115 1.78523 31.9981 2.53906 31.9981H32.3614Z" fill="#8B8B8B"/>
  <path d="M22.0723 27.965C21.7487 27.965 21.4863 28.2273 21.4863 28.5509C21.4863 28.8745 21.7487 29.1369 22.0723 29.1369C22.3959 29.1369 22.6582 28.8745 22.6582 28.5509C22.6582 28.2273 22.3959 27.965 22.0723 27.965Z" fill="#8B8B8B"/>
  <path d="M16.3496 27.965C16.026 27.965 15.7637 28.2273 15.7637 28.5509C15.7637 28.8745 16.026 29.1369 16.3496 29.1369C16.6732 29.1369 16.9355 28.8745 16.9355 28.5509C16.9355 28.2273 16.6732 27.965 16.3496 27.965Z" fill="#8B8B8B"/>
  <path d="M19.2109 23.785C18.8873 23.785 18.625 24.0473 18.625 24.3709C18.625 24.6945 18.8873 24.9569 19.2109 24.9569C19.5345 24.9569 19.7969 24.6945 19.7969 24.3709C19.7969 24.0473 19.5345 23.785 19.2109 23.785Z" fill="#8B8B8B"/>
</svg>