<svg xmlns="http://www.w3.org/2000/svg" width="40" height="41" viewBox="0 0 40 41" fill="none">
  <g clip-path="url(#clip0_4876_7267)">
    <path d="M13.9082 2.84375H8.24219C7.61758 2.84375 7.10938 3.35195 7.10938 3.97656V7.33594C7.10938 7.96055 7.61758 8.46875 8.24219 8.46875H13.9082C14.5328 8.46875 15.041 7.96055 15.041 7.33594V3.97656C15.041 3.35195 14.5328 2.84375 13.9082 2.84375ZM13.8691 7.29688H8.28125V4.01562H13.8691V7.29688ZM20 2.84375C18.4491 2.84375 17.1875 4.10539 17.1875 5.65625C17.1875 7.20711 18.4491 8.46875 20 8.46875C21.5509 8.46875 22.8125 7.20711 22.8125 5.65625C22.8125 4.10539 21.5509 2.84375 20 2.84375ZM20 7.29688C19.0953 7.29688 18.3594 6.56086 18.3594 5.65625C18.3594 4.75164 19.0953 4.01562 20 4.01562C20.9046 4.01562 21.6406 4.75164 21.6406 5.65625C21.6406 6.56086 20.9046 7.29688 20 7.29688ZM10.5078 27.4141C10.5078 32.648 14.766 36.9062 20 36.9062C25.234 36.9062 29.4922 32.648 29.4922 27.4141C29.4922 22.1801 25.234 17.9219 20 17.9219C14.766 17.9219 10.5078 22.1801 10.5078 27.4141ZM28.3203 27.4141C28.3203 32.002 24.5879 35.7344 20 35.7344C15.4122 35.7344 11.6797 32.002 11.6797 27.4141C11.6797 22.8262 15.4122 19.0938 20 19.0938C24.5879 19.0938 28.3203 22.8262 28.3203 27.4141ZM32.3047 0.5H7.69531C6.07984 0.5 4.76562 1.81422 4.76562 3.42969V37.5703C4.76562 39.1858 6.07984 40.5 7.69531 40.5H32.3047C33.9202 40.5 35.2344 39.1858 35.2344 37.5703V31.4153C35.2344 31.0916 34.9721 30.8294 34.6484 30.8294C34.3248 30.8294 34.0625 31.0916 34.0625 31.4153V37.5703C34.0625 38.5395 33.2739 39.3281 32.3047 39.3281H7.69531C6.72602 39.3281 5.9375 38.5395 5.9375 37.5703V15.5H34.0625V28.6809C34.0625 29.0046 34.3248 29.2669 34.6484 29.2669C34.9721 29.2669 35.2344 29.0046 35.2344 28.6809V3.42969C35.2344 1.81422 33.9202 0.5 32.3047 0.5ZM34.0625 9.64062H13.4189C13.0953 9.64062 12.833 9.90289 12.833 10.2266C12.833 10.5502 13.0953 10.8125 13.4189 10.8125H34.0625V14.3281H5.9375V10.8125H10.6845C11.0081 10.8125 11.2705 10.5502 11.2705 10.2266C11.2705 9.90289 11.0081 9.64062 10.6845 9.64062H5.9375V3.42969C5.9375 2.46047 6.72602 1.67188 7.69531 1.67188H32.3047C33.2739 1.67188 34.0625 2.46047 34.0625 3.42969V9.64062ZM31.7578 2.84375H26.0919C25.4673 2.84375 24.9591 3.35195 24.9591 3.97656V7.33594C24.9591 7.96055 25.4673 8.46875 26.0919 8.46875H31.7578C32.3824 8.46875 32.8906 7.96055 32.8906 7.33594V3.97656C32.8906 3.35195 32.3824 2.84375 31.7578 2.84375ZM31.7188 7.29688H26.1309V4.01562H31.7188V7.29688ZM13.2938 27.4141C13.2938 31.1119 16.3022 34.1203 20 34.1203C23.7297 34.1203 26.7062 31.0289 26.7062 27.4141C26.7062 23.842 23.5584 20.7078 20 20.7078C16.3022 20.7078 13.2938 23.7162 13.2938 27.4141ZM25.5344 27.4141C25.5344 27.8773 25.4764 28.3272 25.3686 28.7576C24.6955 28.6801 24.1709 28.1076 24.1709 27.4141C24.1709 26.7205 24.6955 26.148 25.3686 26.0705C25.4763 26.5009 25.5344 26.9508 25.5344 27.4141ZM24.9558 24.9544C23.8364 25.213 22.9991 26.2173 22.9991 27.4141C22.9991 28.6109 23.8364 29.6152 24.9558 29.8738C24.0485 31.6942 22.1684 32.9484 20 32.9484C16.9484 32.9484 14.4656 30.4658 14.4656 27.4141C14.4656 24.3623 16.9484 21.8797 20 21.8797C22.1684 21.8797 24.0485 23.1339 24.9558 24.9544Z" fill="#8B8B8B"/>
  </g>
  <defs>
    <clipPath id="clip0_4876_7267">
      <rect width="40" height="40" fill="white" transform="translate(0 0.5)"/>
    </clipPath>
  </defs>
</svg>